<svg width="82" height="82" viewBox="0 0 82 82" fill="none" xmlns="http://www.w3.org/2000/svg">
<circle cx="41" cy="41" r="41" fill="#364FC7"/>
<path d="M46 35H54" stroke="#4263EB" stroke-width="2" stroke-linecap="round" stroke-linejoin="round"/>
<path d="M45 44H55C54.9979 42.8466 54.5961 41.7296 53.863 40.8392C53.13 39.9487 52.1109 39.3398 50.9794 39.1162C49.8479 38.8926 48.6739 39.0681 47.6572 39.6128C46.6405 40.1575 45.844 41.0377 45.4034 42.1036C44.9627 43.1695 44.9051 44.3551 45.2403 45.4587C45.5756 46.5623 46.2829 47.5156 47.242 48.1563C48.2011 48.797 49.3525 49.0855 50.5004 48.9727C51.6483 48.8599 52.7215 48.3527 53.5375 47.5375" stroke="#4263EB" stroke-width="2" stroke-linecap="round" stroke-linejoin="round"/>
<path d="M29 40.5H37.25C38.3772 40.5 39.4582 40.9478 40.2552 41.7448C41.0522 42.5418 41.5 43.6228 41.5 44.75C41.5 45.8772 41.0522 46.9582 40.2552 47.7552C39.4582 48.5522 38.3772 49 37.25 49H29V33H35.75C36.7446 33 37.6984 33.3951 38.4017 34.0983C39.1049 34.8016 39.5 35.7554 39.5 36.75C39.5 37.7446 39.1049 38.6984 38.4017 39.4017C37.6984 40.1049 36.7446 40.5 35.75 40.5" stroke="#4263EB" stroke-width="2" stroke-linecap="round" stroke-linejoin="round"/>
</svg>
