<svg width="82" height="82" viewBox="0 0 82 82" fill="none" xmlns="http://www.w3.org/2000/svg">
<circle cx="41" cy="41" r="41" fill="#364FC7"/>
<path d="M35.5 55C35.8944 55.0017 36.2853 54.9252 36.65 54.775C37.0147 54.6248 37.3461 54.4039 37.625 54.125C37.9039 53.8461 38.1248 53.5147 38.275 53.15C38.4252 52.7853 38.5017 52.3944 38.5 52V46" stroke="#4263EB" stroke-width="2" stroke-linecap="round" stroke-linejoin="round"/>
<path d="M46.5 55C46.1056 55.0017 45.7147 54.9252 45.35 54.775C44.9853 54.6248 44.6539 54.4039 44.375 54.125C44.0961 53.8461 43.8752 53.5147 43.725 53.15C43.5748 52.7853 43.4984 52.3944 43.5 52V46" stroke="#4263EB" stroke-width="2" stroke-linecap="round" stroke-linejoin="round"/>
<path d="M44 46H46C46.3944 45.9984 46.7853 46.0748 47.15 46.225C47.5147 46.3752 47.8461 46.5961 48.125 46.875C48.4039 47.1539 48.6248 47.4853 48.775 47.85C48.9252 48.2147 49.0017 48.6056 49 49V50C48.9983 50.3945 49.0748 50.7853 49.225 51.15C49.3752 51.5148 49.5961 51.8461 49.875 52.125C50.1539 52.4039 50.4853 52.6249 50.85 52.775C51.2147 52.9252 51.6056 53.0017 52 53" stroke="#4263EB" stroke-width="2" stroke-linecap="round" stroke-linejoin="round"/>
<path d="M38 46H36C35.6056 45.9984 35.2147 46.0748 34.85 46.225C34.4853 46.3752 34.1539 46.5961 33.875 46.875C33.5961 47.1539 33.3752 47.4853 33.225 47.85C33.0748 48.2147 32.9983 48.6056 33 49V50C33.0017 50.3945 32.9252 50.7853 32.775 51.15C32.6248 51.5148 32.4039 51.8461 32.125 52.125C31.8461 52.4039 31.5147 52.6249 31.15 52.775C30.7853 52.9252 30.3944 53.0017 30 53" stroke="#4263EB" stroke-width="2" stroke-linecap="round" stroke-linejoin="round"/>
<path d="M38.975 33C38.3875 32.0806 37.5781 31.3239 36.6212 30.7997C35.6644 30.2754 34.591 30.0004 33.5 30C33.0149 30.8397 32.7238 31.7774 32.6481 32.7442C32.5724 33.711 32.714 34.6825 33.0625 35.5875C32.379 36.5951 32.0093 37.7825 32 39V40C32 41.5913 32.6321 43.1174 33.7574 44.2426C34.8826 45.3679 36.4087 46 38 46H44C45.5913 46 47.1174 45.3679 48.2426 44.2426C49.3679 43.1174 50 41.5913 50 40V39C49.9907 37.7825 49.621 36.5951 48.9375 35.5875C49.286 34.6825 49.4276 33.711 49.3519 32.7442C49.2762 31.7774 48.9851 30.8397 48.5 30C47.409 30.0004 46.3356 30.2754 45.3787 30.7997C44.4219 31.3239 43.6125 32.0806 43.025 33H38.975Z" stroke="#4263EB" stroke-width="2" stroke-linecap="round" stroke-linejoin="round"/>
</svg>
