<svg width="82" height="82" viewBox="0 0 82 82" fill="none" xmlns="http://www.w3.org/2000/svg">
<circle cx="41" cy="41" r="41" fill="#364FC7"/>
<path d="M41 46C43.7614 46 46 43.7614 46 41C46 38.2386 43.7614 36 41 36C38.2386 36 36 38.2386 36 41C36 43.7614 38.2386 46 41 46Z" stroke="#4263EB" stroke-width="2" stroke-miterlimit="10"/>
<path d="M46.5 29.5H35.5C32.1863 29.5 29.5 32.1863 29.5 35.5V46.5C29.5 49.8137 32.1863 52.5 35.5 52.5H46.5C49.8137 52.5 52.5 49.8137 52.5 46.5V35.5C52.5 32.1863 49.8137 29.5 46.5 29.5Z" stroke="#4263EB" stroke-width="2" stroke-linecap="round" stroke-linejoin="round"/>
<path d="M47.5 36C48.3284 36 49 35.3284 49 34.5C49 33.6716 48.3284 33 47.5 33C46.6716 33 46 33.6716 46 34.5C46 35.3284 46.6716 36 47.5 36Z" fill="#4263EB"/>
</svg>
