<svg width="82" height="82" viewBox="0 0 82 82" fill="none" xmlns="http://www.w3.org/2000/svg">
<circle cx="41" cy="41" r="41" fill="#364FC7"/>
<path d="M40.9997 36C40.9997 33.25 43.3122 30.9625 46.0622 31C47.0253 31.0111 47.9646 31.3001 48.7673 31.8323C49.5701 32.3645 50.202 33.1172 50.5872 34H54.9997L50.9622 38.0375C50.7016 42.0932 48.9063 45.8974 45.9412 48.6768C42.9761 51.4562 39.0638 53.002 34.9997 53C30.9997 53 29.9997 51.5 29.9997 51.5C29.9997 51.5 33.9997 50 35.9997 47C35.9997 47 27.9997 43 29.9997 32C29.9997 32 34.9997 37 40.9997 38V36Z" stroke="#4263EB" stroke-width="2" stroke-linecap="round" stroke-linejoin="round"/>
</svg>
