<svg width="148" height="48" viewBox="0 0 148 48" fill="none" xmlns="http://www.w3.org/2000/svg">
<path d="M21.0301 25.9237C21.1387 25.7609 21.356 25.4352 21.7906 25.7609C22.2251 26.0323 22.4967 26.4665 22.3881 26.6293C21.0301 28.9631 10.0573 37.8099 6.90667 39.3838C4.95112 40.4151 1.69187 41.392 0.33385 39.221C-2.87108 34.7162 18.0424 4.91937 18.5313 4.81082C20.2696 2.31418 22.5511 0.631665 24.235 0.143191C24.8325 -0.019634 25.4301 -0.073908 25.9733 0.143191C26.8967 0.414565 27.5486 1.01159 27.8202 1.87998C28.0375 2.6941 27.8202 3.9967 26.8424 5.84204C23.3659 12.7892 8.86222 23.807 8.8079 23.8613C8.75358 23.8613 8.69925 23.9155 8.59061 23.8613C4.62519 30.7542 1.80051 36.9958 2.561 38.624C3.04989 39.3296 5.38568 38.4612 5.92889 38.1898C9.02518 36.5616 19.6721 28.2032 21.0301 25.9237ZM20.0523 5.95059C20.0523 5.95059 15.6523 12.355 11.2523 19.5193C15.761 15.7743 22.9856 9.3699 25.3214 4.75655C26.1362 3.1283 26.4078 1.98853 26.2449 1.28296C26.0819 1.28296 25.8103 1.33724 25.5387 1.39151C23.9634 1.87998 21.7906 3.50823 20.0523 5.95059Z" fill="#6366f1"/>
<path d="M23.8722 21.039C24.0894 20.8219 24.6327 21.039 25.0672 21.4732C25.5018 21.9616 25.6647 22.5044 25.5018 22.7758C21.3734 27.4977 21.0475 30.7542 21.4277 31.0798C22.0796 31.6226 26.2623 28.9631 29.1956 24.0241L29.3586 23.807C29.5758 23.5899 30.1191 23.7527 30.5536 24.2412C30.9882 24.6754 31.2055 25.2724 30.9882 25.4895C30.9882 25.4895 30.8795 25.6523 30.6079 25.8694C29.9018 26.7378 25.8277 32.4909 29.9018 30.5371C32.0203 29.5058 34.519 27.4977 35.9314 25.6523C36.1487 25.381 36.366 24.8382 36.8548 25.3267C37.2894 25.7609 37.0178 26.0865 36.8005 26.3036C35.3339 28.2032 33.2697 30.7542 31.0968 31.7854C29.1956 32.708 26.8055 32.2739 26.4796 29.94C21.1018 34.5534 16.7018 33.685 19.6895 27.0635C20.6672 24.8925 22.4598 22.5587 23.8722 21.039Z" fill="#6366f1"/>
<path d="M39.3205 21.4732C39.5921 21.2561 40.1353 21.4732 40.5699 21.9616C41.0044 22.4501 41.1674 22.9929 40.8958 23.21C39.7007 24.2412 37.7452 26.575 36.5501 28.8545C35.7896 30.3742 35.844 31.2426 36.3872 31.514C38.6143 31.8397 44.6439 25.978 44.6439 25.9237C44.8612 25.7066 45.2415 25.2724 45.676 25.7609C46.1649 26.2494 45.9476 26.4122 45.7303 26.6293C45.676 26.6293 36.6588 36.3987 34.323 32.3281C33.5625 30.9713 33.9427 29.1259 34.8662 27.2806C36.0612 24.9468 38.0711 22.5044 39.3205 21.4732ZM41.439 18.4338C41.5476 18.3252 41.6563 18.1624 41.7649 17.9996C42.1995 17.3483 42.5797 16.5884 42.5797 16.2085C42.6341 15.9914 42.9057 15.6658 43.1773 15.503C43.5032 15.2858 44.318 15.8829 44.2637 16.1542C44.2094 16.9141 42.1995 19.9535 40.6242 19.5193C40.5699 19.465 40.5699 19.465 40.5155 19.4107C40.3526 19.3022 40.5155 18.9765 40.7871 18.7052C41.0044 18.4881 41.276 18.3795 41.439 18.4338Z" fill="#6366f1"/>
<path d="M44.9177 27.5519C44.7004 27.769 44.0485 28.0947 43.614 27.6605C43.1794 27.172 44.3201 26.1951 44.5374 25.978L48.6115 21.039C49.3176 20.2791 49.8608 19.8449 49.8608 19.8449C50.0781 19.6278 50.6213 19.8449 51.0016 20.3334C51.4362 20.7676 51.6534 21.3646 51.4362 21.5817L50.1325 22.83C48.9917 24.1326 47.4707 26.4665 48.0683 28.9631C48.3942 30.5371 48.2312 31.7854 47.7967 32.708C47.5251 33.1965 47.1448 33.5764 46.7646 33.9021C46.3843 34.1735 45.9498 34.3906 45.5152 34.4991C44.7547 34.6619 43.9942 34.5534 43.3967 34.2277C40.3004 32.6538 41.9843 29.6144 41.9843 29.5601C42.1473 29.2887 42.6362 29.3973 43.1251 29.8315C43.614 30.2657 43.8312 30.8627 43.7226 31.1341C43.7226 31.1884 42.9621 32.5452 43.0707 32.5995C43.288 32.708 43.7226 32.708 44.1572 32.5995C44.5374 32.5452 44.9177 32.3824 45.2436 32.111C45.5695 31.8939 45.8954 31.514 46.0584 31.1341C46.4386 30.3742 46.6016 29.3973 46.33 28.149C46.33 27.4434 45.8411 27.3891 47.1448 25.001L44.9177 27.5519Z" fill="#6366f1"/>
<path d="M76.9304 16.9684C76.7675 16.8598 76.6045 16.6427 76.4959 16.4799C76.1699 15.9914 76.2243 15.5572 76.6045 15.503C77.1477 15.503 78.6144 14.0375 80.081 12.1922L80.5156 11.758C81.4391 10.2926 82.2539 9.04425 82.8514 8.06731C83.5033 6.98181 83.9921 6.22196 84.3724 5.84204C84.4267 5.62494 84.5897 5.57067 84.8613 5.62494H84.9156C86.002 5.95059 86.3823 6.54761 86.1107 7.52456C85.8934 8.33868 84.0465 11.0524 82.1452 13.3862C81.1131 14.9602 79.8638 16.7513 78.5057 18.6509C76.8761 20.9304 74.3774 24.5668 71.7156 28.4203C73.9971 28.4746 77.7996 28.6374 81.6563 25.7609C81.8736 25.5981 82.1452 25.1639 82.5255 25.6523C82.96 26.1408 83.123 26.6836 82.8514 26.8464C77.528 30.8084 72.7477 30.4828 70.6292 30.0486L70.249 30.5371C70.3576 31.8397 70.3033 34.0649 69.5428 37.43C68.9996 39.9809 67.8045 41.8805 66.4465 43.2916C64.5996 45.1912 62.4268 46.1139 61.2317 46.0054L61.1774 45.9511C61.0688 45.9511 61.0144 45.9511 60.9058 45.8968L60.7972 45.8425C59.5478 45.2455 59.4391 44.0515 60.1453 42.5318C60.6342 41.5548 61.3947 40.198 62.3181 38.624C63.9478 35.9103 66.1749 32.491 68.4564 29.1259C68.4021 28.746 68.3477 28.5832 68.3477 28.5832C68.1848 28.0947 68.4021 27.769 68.8366 27.9319H68.891C68.891 27.9319 68.9996 27.9861 69.2169 28.0404C72.1502 23.6984 75.0835 19.5736 76.8761 17.0226L76.9304 16.9684ZM68.2934 33.5222C66.6638 35.9645 65.1971 38.2983 64.0021 40.2522C63.1873 41.5548 62.5354 42.7489 62.1009 43.6173C62.97 43.2374 63.9478 42.5318 64.8712 41.6091C66.1206 40.2522 67.2613 38.4612 67.8045 36.0731C68.0218 35.0961 68.1848 34.282 68.2934 33.5222Z" fill="#6366f1"/>
<path d="M83.7401 25.381C84.5005 25.1639 85.3154 24.8382 86.1845 24.4583C87.3252 23.8613 88.303 22.7215 88.9005 21.6903C89.0092 21.4732 89.0635 21.3103 89.1721 21.0932C88.5746 21.3646 87.8684 21.7988 87.0536 22.3958C85.9672 23.21 84.7178 24.2412 83.7401 25.381ZM87.5968 26.2494C85.0438 27.5519 82.1647 27.8776 82.0018 27.8776C78.308 35.8017 92.9746 29.0716 94.6585 26.0323C94.8215 25.7066 95.3647 25.3267 95.8536 25.7609C96.2882 26.1951 96.2882 26.4122 96.1252 26.7378C94.6042 29.3973 86.1302 35.259 82.382 33.1422C80.5351 32.111 79.3944 29.94 79.829 27.8233C80.1006 26.4665 80.9154 25.0553 82.0018 23.807C83.0882 22.6129 84.3376 21.4732 85.5326 20.6048C87.1079 19.5193 88.5746 18.868 89.1721 18.9765C89.661 19.0851 90.0956 19.3565 90.4758 19.7907C91.0191 20.3877 91.2363 21.0933 91.1277 21.7445C91.0734 22.233 90.8561 22.7215 90.5845 23.2642C89.987 24.404 88.9005 25.5981 87.5968 26.2494Z" fill="#6366f1"/>
<path d="M110.097 25.9237C110.206 25.7609 110.423 25.4352 110.858 25.7609C111.292 26.0323 111.564 26.4665 111.455 26.6293C110.097 28.9631 99.1243 37.8099 95.9737 39.3838C94.0181 40.4151 90.7589 41.392 89.4009 39.221C86.196 34.7162 107.109 4.91937 107.598 4.81082C109.337 2.31418 111.618 0.631665 113.302 0.143191C113.9 -0.019634 114.497 -0.073908 115.04 0.143191C115.964 0.414565 116.616 1.01159 116.887 1.87998C117.104 2.6941 116.887 3.9967 115.909 5.84204C112.433 12.7892 97.9293 23.807 97.8749 23.8613C97.8206 23.8613 97.7663 23.9155 97.6576 23.8613C93.6922 30.7542 90.8675 36.9958 91.628 38.624C92.1169 39.3296 94.4527 38.4612 94.9959 38.1898C98.0922 36.5616 108.739 28.2032 110.097 25.9237ZM109.119 5.95059C109.119 5.95059 104.719 12.355 100.319 19.5193C104.828 15.7743 112.053 9.3699 114.388 4.75655C115.203 3.1283 115.475 1.98853 115.312 1.28296C115.149 1.28296 114.877 1.33724 114.606 1.39151C113.03 1.87998 110.858 3.50823 109.119 5.95059Z" fill="#6366f1"/>
<path d="M113.428 21.4732C113.7 21.2561 114.243 21.4732 114.677 21.9616C115.112 22.4501 115.275 22.9929 115.003 23.21C113.808 24.2412 111.853 26.575 110.658 28.8545C109.897 30.3742 109.952 31.2426 110.495 31.514C112.722 31.8397 118.752 25.978 118.752 25.9237C118.969 25.7066 119.349 25.2724 119.784 25.7609C120.273 26.2494 120.055 26.4122 119.838 26.6293C119.784 26.6293 110.766 36.3987 108.431 32.3281C107.67 30.9713 108.05 29.1259 108.974 27.2806C110.169 24.9468 112.179 22.5044 113.428 21.4732ZM116.796 19.8992C116.579 20.1706 116.035 19.9535 115.601 19.5193C115.166 19.0308 114.949 18.4881 115.166 18.2167L118.208 14.7431C118.426 14.4717 118.914 14.6888 119.403 15.123C119.838 15.6115 120.001 16.1542 119.838 16.4256L116.796 19.8992Z" fill="#6366f1"/>
<path d="M112.127 43.6173C112.452 43.0745 114.897 38.7868 115.44 37.7556C115.82 37.05 116.309 36.2902 116.744 35.4218C119.786 29.6687 124.294 21.3646 127.173 20.9847C130.813 20.4962 131.519 24.6211 130.107 27.4977C129.02 30.3742 126.359 33.3593 124.946 33.3593C123.317 33.3593 122.122 32.3281 121.415 31.2969C119.351 34.6619 115.386 41.8805 113.756 44.8656L113.322 45.6254C113.05 46.6024 112.615 47.5793 112.072 47.905C110.823 48.6106 110.117 45.2455 110.606 42.4775C111.149 39.6552 122.61 17.8368 123.099 17.0226C123.371 16.5342 125.544 17.7825 125.326 18.1081L112.127 43.6173ZM128.423 22.8843C126.956 23.0471 124.62 26.1408 122.122 30.1029C122.339 30.5371 122.882 31.4597 123.86 31.4597C124.946 31.4597 126.847 28.5289 127.88 25.8152C128.205 25.001 128.477 24.2955 128.586 23.6442C128.64 23.0471 128.586 22.6129 128.477 22.4501C128.314 22.1787 128.586 22.83 128.423 22.8843Z" fill="#6366f1"/>
<path d="M135.515 25.381C136.275 25.1639 137.09 24.8382 137.959 24.4583C139.1 23.8613 140.078 22.7215 140.675 21.6903C140.784 21.4732 140.838 21.3103 140.947 21.0932C140.349 21.3646 139.643 21.7988 138.828 22.3958C137.742 23.21 136.492 24.2412 135.515 25.381ZM139.371 26.2494C136.818 27.5519 133.939 27.8776 133.776 27.8776C130.082 35.8017 144.749 29.0716 146.433 26.0323C146.596 25.7066 147.139 25.3267 147.628 25.7609C148.063 26.1951 148.063 26.4122 147.9 26.7378C146.379 29.3973 137.905 35.259 134.157 33.1422C132.31 32.111 131.169 29.94 131.603 27.8233C131.875 26.4665 132.69 25.0553 133.776 23.807C134.863 22.6129 136.112 21.4732 137.307 20.6048C138.882 19.5193 140.349 18.868 140.947 18.9765C141.436 19.0851 141.87 19.3565 142.25 19.7907C142.794 20.3877 143.011 21.0933 142.902 21.7445C142.848 22.233 142.631 22.7215 142.359 23.2642C141.761 24.404 140.675 25.5981 139.371 26.2494Z" fill="#6366f1"/>
</svg>
